<mxfile host="app.diagrams.net" agent="Mozilla/5.0 (Macintosh; Intel Mac OS X 10_15_7) AppleWebKit/605.1.15 (KHTML, like Gecko) Version/18.6 Safari/605.1.15" version="28.2.5">
  <diagram id="1ryKNmtwmFlTWZmMpe1t" name="Page-1">
    <mxGraphModel dx="1013" dy="684" grid="1" gridSize="10" guides="1" tooltips="1" connect="1" arrows="1" fold="1" page="1" pageScale="1" pageWidth="1169" pageHeight="827" background="light-dark(#FFFFFF,#FFFFFF)" math="0" shadow="0">
      <root>
        <mxCell id="0" />
        <mxCell id="1" parent="0" />
        <mxCell id="SVeB0aTuuSMYUy8Htw26-130" value="" style="ellipse;whiteSpace=wrap;html=1;fillColor=#008a00;strokeColor=light-dark(#005700, #38571a);strokeWidth=2;fontColor=#ffffff;opacity=70;" parent="1" vertex="1">
          <mxGeometry x="680" y="626.75" width="76.5" height="46.5" as="geometry" />
        </mxCell>
        <mxCell id="SVeB0aTuuSMYUy8Htw26-110" value="&lt;span style=&quot;color: light-dark(rgb(0, 0, 0), rgb(0, 0, 0));&quot;&gt;Menneske&lt;/span&gt;" style="rounded=0;whiteSpace=wrap;html=1;fillColor=#1ba1e2;strokeColor=light-dark(#006EAF, #0042aa);strokeWidth=2;fontColor=#ffffff;gradientColor=none;gradientDirection=radial;opacity=50;" parent="1" vertex="1">
          <mxGeometry x="200" y="250" width="120" height="60" as="geometry" />
        </mxCell>
        <mxCell id="SVeB0aTuuSMYUy8Htw26-115" value="&lt;span style=&quot;color: light-dark(rgb(0, 0, 0), rgb(0, 0, 0));&quot;&gt;Bolig&lt;/span&gt;" style="rounded=0;whiteSpace=wrap;html=1;fillColor=#1ba1e2;strokeColor=light-dark(#006EAF, #0042aa);strokeWidth=2;fontColor=#ffffff;gradientColor=none;gradientDirection=radial;opacity=50;" parent="1" vertex="1">
          <mxGeometry x="600" y="250" width="120" height="60" as="geometry" />
        </mxCell>
        <mxCell id="SVeB0aTuuSMYUy8Htw26-117" value="&lt;font style=&quot;font-size: 10px;&quot;&gt;&lt;u&gt;Personnummer&lt;/u&gt;&lt;/font&gt;" style="ellipse;whiteSpace=wrap;html=1;fillColor=#008a00;strokeColor=light-dark(#005700, #38571a);strokeWidth=2;fontColor=#ffffff;opacity=60;" parent="1" vertex="1">
          <mxGeometry x="280" y="170" width="70" height="40" as="geometry" />
        </mxCell>
        <mxCell id="SVeB0aTuuSMYUy8Htw26-119" value="Bor" style="rhombus;whiteSpace=wrap;html=1;fillColor=light-dark(#E51400,#FF0000);strokeColor=light-dark(#E51400,#FF0000);fontColor=#ffffff;opacity=60;" parent="1" vertex="1">
          <mxGeometry x="400" y="250" width="120" height="60" as="geometry" />
        </mxCell>
        <mxCell id="SVeB0aTuuSMYUy8Htw26-120" value="&lt;span style=&quot;color: light-dark(rgb(0, 0, 0), rgb(0, 0, 0));&quot;&gt;Yrke&lt;/span&gt;" style="rounded=0;whiteSpace=wrap;html=1;fillColor=#1ba1e2;strokeColor=light-dark(#006EAF, #0042aa);strokeWidth=2;fontColor=#ffffff;gradientColor=none;gradientDirection=radial;opacity=50;" parent="1" vertex="1">
          <mxGeometry x="200" y="530" width="120" height="60" as="geometry" />
        </mxCell>
        <mxCell id="SVeB0aTuuSMYUy8Htw26-121" value="&lt;span style=&quot;color: light-dark(rgb(0, 0, 0), rgb(0, 0, 0));&quot;&gt;Rom&lt;/span&gt;" style="rounded=0;whiteSpace=wrap;html=1;fillColor=#1ba1e2;strokeColor=light-dark(#006EAF, #0042aa);strokeWidth=2;fontColor=#ffffff;gradientColor=none;gradientDirection=radial;opacity=50;" parent="1" vertex="1">
          <mxGeometry x="600" y="530" width="120" height="60" as="geometry" />
        </mxCell>
        <mxCell id="SVeB0aTuuSMYUy8Htw26-122" value="Utføres" style="rhombus;whiteSpace=wrap;html=1;fillColor=light-dark(#E51400,#FF0000);strokeColor=light-dark(#E51400,#FF0000);fontColor=#ffffff;opacity=60;" parent="1" vertex="1">
          <mxGeometry x="200" y="390" width="120" height="60" as="geometry" />
        </mxCell>
        <mxCell id="SVeB0aTuuSMYUy8Htw26-123" value="Inneholder" style="rhombus;whiteSpace=wrap;html=1;fillColor=light-dark(#E51400,#FF0000);strokeColor=light-dark(#E51400,#FF0000);fontColor=#ffffff;opacity=60;" parent="1" vertex="1">
          <mxGeometry x="600" y="390" width="120" height="60" as="geometry" />
        </mxCell>
        <mxCell id="SVeB0aTuuSMYUy8Htw26-124" value="Navn" style="ellipse;whiteSpace=wrap;html=1;fillColor=#008a00;strokeColor=light-dark(#005700, #38571a);strokeWidth=2;fontColor=#ffffff;opacity=60;" parent="1" vertex="1">
          <mxGeometry x="370" y="170" width="70" height="40" as="geometry" />
        </mxCell>
        <mxCell id="SVeB0aTuuSMYUy8Htw26-125" value="Fornavn" style="ellipse;whiteSpace=wrap;html=1;fillColor=#008a00;strokeColor=light-dark(#005700, #38571a);strokeWidth=2;fontColor=#ffffff;opacity=60;" parent="1" vertex="1">
          <mxGeometry x="330" y="100" width="70" height="40" as="geometry" />
        </mxCell>
        <mxCell id="SVeB0aTuuSMYUy8Htw26-126" value="Etternavn" style="ellipse;whiteSpace=wrap;html=1;fillColor=#008a00;strokeColor=light-dark(#005700, #38571a);strokeWidth=2;fontColor=#ffffff;opacity=60;" parent="1" vertex="1">
          <mxGeometry x="410" y="100" width="70" height="40" as="geometry" />
        </mxCell>
        <mxCell id="SVeB0aTuuSMYUy8Htw26-127" value="&lt;font style=&quot;font-size: 10px;&quot;&gt;Fødselsdato&lt;/font&gt;" style="ellipse;whiteSpace=wrap;html=1;fillColor=#008a00;strokeColor=light-dark(#005700, #38571a);strokeWidth=2;fontColor=#ffffff;opacity=60;" parent="1" vertex="1">
          <mxGeometry x="190" y="170" width="70" height="40" as="geometry" />
        </mxCell>
        <mxCell id="SVeB0aTuuSMYUy8Htw26-128" value="Alder" style="ellipse;whiteSpace=wrap;html=1;fillColor=#008a00;strokeColor=light-dark(#005700, #38571a);strokeWidth=2;fontColor=#ffffff;opacity=60;dashed=1;" parent="1" vertex="1">
          <mxGeometry x="100" y="170" width="70" height="40" as="geometry" />
        </mxCell>
        <mxCell id="SVeB0aTuuSMYUy8Htw26-138" value="" style="endArrow=none;html=1;rounded=0;exitX=0.5;exitY=0;exitDx=0;exitDy=0;entryX=0.5;entryY=1;entryDx=0;entryDy=0;strokeColor=light-dark(#000000,#000000);" parent="1" source="SVeB0aTuuSMYUy8Htw26-122" target="SVeB0aTuuSMYUy8Htw26-110" edge="1">
          <mxGeometry width="50" height="50" relative="1" as="geometry">
            <mxPoint x="330" y="410" as="sourcePoint" />
            <mxPoint x="365" y="360" as="targetPoint" />
          </mxGeometry>
        </mxCell>
        <mxCell id="SVeB0aTuuSMYUy8Htw26-139" value="" style="endArrow=none;html=1;rounded=0;exitX=0.5;exitY=0;exitDx=0;exitDy=0;entryX=0.5;entryY=1;entryDx=0;entryDy=0;strokeColor=light-dark(#000000,#000000);" parent="1" source="SVeB0aTuuSMYUy8Htw26-120" target="SVeB0aTuuSMYUy8Htw26-122" edge="1">
          <mxGeometry width="50" height="50" relative="1" as="geometry">
            <mxPoint x="300" y="420" as="sourcePoint" />
            <mxPoint x="300" y="340" as="targetPoint" />
          </mxGeometry>
        </mxCell>
        <mxCell id="SVeB0aTuuSMYUy8Htw26-142" value="" style="endArrow=none;html=1;rounded=0;exitX=0;exitY=0.5;exitDx=0;exitDy=0;entryX=1;entryY=0.5;entryDx=0;entryDy=0;strokeColor=light-dark(#000000,#000000);" parent="1" source="SVeB0aTuuSMYUy8Htw26-115" target="SVeB0aTuuSMYUy8Htw26-119" edge="1">
          <mxGeometry width="50" height="50" relative="1" as="geometry">
            <mxPoint x="410" y="470" as="sourcePoint" />
            <mxPoint x="410" y="390" as="targetPoint" />
          </mxGeometry>
        </mxCell>
        <mxCell id="SVeB0aTuuSMYUy8Htw26-143" value="&lt;span style=&quot;color: light-dark(rgb(0, 0, 0), rgb(0, 0, 0));&quot;&gt;N&lt;/span&gt;" style="text;html=1;align=center;verticalAlign=middle;resizable=0;points=[];autosize=1;strokeColor=none;fillColor=none;" parent="1" vertex="1">
          <mxGeometry x="380" y="258" width="30" height="30" as="geometry" />
        </mxCell>
        <mxCell id="SVeB0aTuuSMYUy8Htw26-144" value="&lt;span style=&quot;color: light-dark(rgb(0, 0, 0), rgb(0, 0, 0));&quot;&gt;1&lt;/span&gt;" style="text;html=1;align=center;verticalAlign=middle;resizable=0;points=[];autosize=1;strokeColor=none;fillColor=none;" parent="1" vertex="1">
          <mxGeometry x="515" y="258" width="30" height="30" as="geometry" />
        </mxCell>
        <mxCell id="SVeB0aTuuSMYUy8Htw26-145" value="" style="endArrow=none;html=1;rounded=0;exitX=0.5;exitY=0;exitDx=0;exitDy=0;entryX=0.5;entryY=1;entryDx=0;entryDy=0;strokeColor=light-dark(#000000,#000000);" parent="1" source="SVeB0aTuuSMYUy8Htw26-123" target="SVeB0aTuuSMYUy8Htw26-115" edge="1">
          <mxGeometry width="50" height="50" relative="1" as="geometry">
            <mxPoint x="610" y="390" as="sourcePoint" />
            <mxPoint x="530" y="390" as="targetPoint" />
          </mxGeometry>
        </mxCell>
        <mxCell id="SVeB0aTuuSMYUy8Htw26-146" value="" style="endArrow=none;html=1;rounded=0;exitX=0.5;exitY=0;exitDx=0;exitDy=0;entryX=0.5;entryY=1;entryDx=0;entryDy=0;strokeColor=light-dark(#000000,#000000);" parent="1" source="SVeB0aTuuSMYUy8Htw26-121" target="SVeB0aTuuSMYUy8Htw26-123" edge="1">
          <mxGeometry width="50" height="50" relative="1" as="geometry">
            <mxPoint x="640" y="480" as="sourcePoint" />
            <mxPoint x="560" y="480" as="targetPoint" />
          </mxGeometry>
        </mxCell>
        <mxCell id="SVeB0aTuuSMYUy8Htw26-148" value="" style="shape=link;html=1;rounded=0;strokeColor=light-dark(#000000,#000000);exitX=1;exitY=0.5;exitDx=0;exitDy=0;entryX=0;entryY=0.5;entryDx=0;entryDy=0;" parent="1" source="SVeB0aTuuSMYUy8Htw26-110" target="SVeB0aTuuSMYUy8Htw26-119" edge="1">
          <mxGeometry width="100" relative="1" as="geometry">
            <mxPoint x="300" y="390" as="sourcePoint" />
            <mxPoint x="400" y="390" as="targetPoint" />
          </mxGeometry>
        </mxCell>
        <mxCell id="SVeB0aTuuSMYUy8Htw26-150" value="&lt;u&gt;Adresse&lt;/u&gt;" style="ellipse;whiteSpace=wrap;html=1;fillColor=#008a00;strokeColor=light-dark(#005700, #38571a);strokeWidth=2;fontColor=#ffffff;opacity=60;" parent="1" vertex="1">
          <mxGeometry x="580" y="170" width="70" height="40" as="geometry" />
        </mxCell>
        <mxCell id="SVeB0aTuuSMYUy8Htw26-151" value="Type" style="ellipse;whiteSpace=wrap;html=1;fillColor=#008a00;strokeColor=light-dark(#005700, #38571a);strokeWidth=2;fontColor=#ffffff;opacity=60;" parent="1" vertex="1">
          <mxGeometry x="670" y="170" width="70" height="40" as="geometry" />
        </mxCell>
        <mxCell id="SVeB0aTuuSMYUy8Htw26-154" value="&lt;span style=&quot;color: light-dark(rgb(0, 0, 0), rgb(0, 0, 0));&quot;&gt;1&lt;/span&gt;" style="text;html=1;align=center;verticalAlign=middle;resizable=0;points=[];autosize=1;strokeColor=none;fillColor=none;" parent="1" vertex="1">
          <mxGeometry x="640" y="370" width="30" height="30" as="geometry" />
        </mxCell>
        <mxCell id="SVeB0aTuuSMYUy8Htw26-156" value="&lt;span style=&quot;color: light-dark(rgb(0, 0, 0), rgb(0, 0, 0));&quot;&gt;M&lt;/span&gt;" style="text;html=1;align=center;verticalAlign=middle;resizable=0;points=[];autosize=1;strokeColor=none;fillColor=none;" parent="1" vertex="1">
          <mxGeometry x="640" y="440" width="30" height="30" as="geometry" />
        </mxCell>
        <mxCell id="SVeB0aTuuSMYUy8Htw26-157" value="&lt;u&gt;Navn&lt;/u&gt;" style="ellipse;whiteSpace=wrap;html=1;fillColor=#008a00;strokeColor=light-dark(#005700, #38571a);strokeWidth=2;fontColor=#ffffff;opacity=60;" parent="1" vertex="1">
          <mxGeometry x="585" y="630" width="70" height="40" as="geometry" />
        </mxCell>
        <mxCell id="SVeB0aTuuSMYUy8Htw26-158" value="&lt;font style=&quot;font-size: 11px;&quot;&gt;Bruksområde&lt;/font&gt;" style="ellipse;whiteSpace=wrap;html=1;fillColor=#008a00;strokeColor=light-dark(#005700, #38571a);strokeWidth=2;fontColor=#ffffff;opacity=60;" parent="1" vertex="1">
          <mxGeometry x="683.25" y="630" width="70" height="40" as="geometry" />
        </mxCell>
        <mxCell id="SVeB0aTuuSMYUy8Htw26-161" value="" style="endArrow=none;html=1;rounded=0;strokeColor=light-dark(#000000,#000000);" parent="1" edge="1">
          <mxGeometry width="50" height="50" relative="1" as="geometry">
            <mxPoint x="130" y="230" as="sourcePoint" />
            <mxPoint x="405.5" y="230" as="targetPoint" />
          </mxGeometry>
        </mxCell>
        <mxCell id="SVeB0aTuuSMYUy8Htw26-162" value="" style="endArrow=none;html=1;rounded=0;entryX=0.5;entryY=0;entryDx=0;entryDy=0;strokeColor=light-dark(#000000,#000000);" parent="1" target="SVeB0aTuuSMYUy8Htw26-110" edge="1">
          <mxGeometry width="50" height="50" relative="1" as="geometry">
            <mxPoint x="260" y="230" as="sourcePoint" />
            <mxPoint x="140" y="270" as="targetPoint" />
          </mxGeometry>
        </mxCell>
        <mxCell id="SVeB0aTuuSMYUy8Htw26-163" value="" style="endArrow=none;html=1;rounded=0;strokeColor=light-dark(#000000,#000000);" parent="1" edge="1">
          <mxGeometry width="50" height="50" relative="1" as="geometry">
            <mxPoint x="130" y="210" as="sourcePoint" />
            <mxPoint x="130" y="230" as="targetPoint" />
          </mxGeometry>
        </mxCell>
        <mxCell id="SVeB0aTuuSMYUy8Htw26-164" value="" style="endArrow=none;html=1;rounded=0;entryX=0.5;entryY=1;entryDx=0;entryDy=0;strokeColor=light-dark(#000000,#000000);" parent="1" target="SVeB0aTuuSMYUy8Htw26-127" edge="1">
          <mxGeometry width="50" height="50" relative="1" as="geometry">
            <mxPoint x="225" y="230" as="sourcePoint" />
            <mxPoint x="170" y="240" as="targetPoint" />
          </mxGeometry>
        </mxCell>
        <mxCell id="SVeB0aTuuSMYUy8Htw26-165" value="" style="endArrow=none;html=1;rounded=0;entryX=0.5;entryY=1;entryDx=0;entryDy=0;strokeColor=light-dark(#000000,#000000);" parent="1" target="SVeB0aTuuSMYUy8Htw26-117" edge="1">
          <mxGeometry width="50" height="50" relative="1" as="geometry">
            <mxPoint x="315" y="230" as="sourcePoint" />
            <mxPoint x="300" y="210" as="targetPoint" />
          </mxGeometry>
        </mxCell>
        <mxCell id="SVeB0aTuuSMYUy8Htw26-166" value="" style="endArrow=none;html=1;rounded=0;entryX=0.5;entryY=1;entryDx=0;entryDy=0;strokeColor=light-dark(#000000,#000000);" parent="1" target="SVeB0aTuuSMYUy8Htw26-124" edge="1">
          <mxGeometry width="50" height="50" relative="1" as="geometry">
            <mxPoint x="405" y="230" as="sourcePoint" />
            <mxPoint x="390" y="210" as="targetPoint" />
          </mxGeometry>
        </mxCell>
        <mxCell id="SVeB0aTuuSMYUy8Htw26-167" value="" style="endArrow=none;html=1;rounded=0;exitX=0.5;exitY=0;exitDx=0;exitDy=0;entryX=0.5;entryY=1;entryDx=0;entryDy=0;strokeColor=light-dark(#000000,#000000);" parent="1" source="SVeB0aTuuSMYUy8Htw26-124" target="SVeB0aTuuSMYUy8Htw26-125" edge="1">
          <mxGeometry width="50" height="50" relative="1" as="geometry">
            <mxPoint x="340" y="230" as="sourcePoint" />
            <mxPoint x="340" y="150" as="targetPoint" />
          </mxGeometry>
        </mxCell>
        <mxCell id="SVeB0aTuuSMYUy8Htw26-168" value="" style="endArrow=none;html=1;rounded=0;exitX=0.5;exitY=0;exitDx=0;exitDy=0;entryX=0.5;entryY=1;entryDx=0;entryDy=0;strokeColor=light-dark(#000000,#000000);" parent="1" source="SVeB0aTuuSMYUy8Htw26-124" target="SVeB0aTuuSMYUy8Htw26-126" edge="1">
          <mxGeometry width="50" height="50" relative="1" as="geometry">
            <mxPoint x="430" y="220" as="sourcePoint" />
            <mxPoint x="430" y="140" as="targetPoint" />
          </mxGeometry>
        </mxCell>
        <mxCell id="SVeB0aTuuSMYUy8Htw26-169" value="Sluttdato" style="ellipse;whiteSpace=wrap;html=1;fillColor=#008a00;strokeColor=light-dark(#005700, #38571a);strokeWidth=2;fontColor=#ffffff;opacity=60;" parent="1" vertex="1">
          <mxGeometry x="90" y="435" width="70" height="40" as="geometry" />
        </mxCell>
        <mxCell id="SVeB0aTuuSMYUy8Htw26-170" value="Startdato" style="ellipse;whiteSpace=wrap;html=1;fillColor=#008a00;strokeColor=light-dark(#005700, #38571a);strokeWidth=2;fontColor=#ffffff;opacity=60;" parent="1" vertex="1">
          <mxGeometry x="90" y="365" width="70" height="40" as="geometry" />
        </mxCell>
        <mxCell id="SVeB0aTuuSMYUy8Htw26-171" value="" style="endArrow=none;html=1;rounded=0;exitX=0;exitY=0.5;exitDx=0;exitDy=0;entryX=1;entryY=0.5;entryDx=0;entryDy=0;strokeColor=light-dark(#000000,#000000);" parent="1" source="SVeB0aTuuSMYUy8Htw26-122" target="SVeB0aTuuSMYUy8Htw26-169" edge="1">
          <mxGeometry width="50" height="50" relative="1" as="geometry">
            <mxPoint x="170" y="540" as="sourcePoint" />
            <mxPoint x="170" y="460" as="targetPoint" />
          </mxGeometry>
        </mxCell>
        <mxCell id="SVeB0aTuuSMYUy8Htw26-172" value="" style="endArrow=none;html=1;rounded=0;exitX=0;exitY=0.5;exitDx=0;exitDy=0;entryX=1;entryY=0.5;entryDx=0;entryDy=0;strokeColor=light-dark(#000000,#000000);" parent="1" source="SVeB0aTuuSMYUy8Htw26-122" target="SVeB0aTuuSMYUy8Htw26-170" edge="1">
          <mxGeometry width="50" height="50" relative="1" as="geometry">
            <mxPoint x="170" y="470" as="sourcePoint" />
            <mxPoint x="170" y="390" as="targetPoint" />
          </mxGeometry>
        </mxCell>
        <mxCell id="SVeB0aTuuSMYUy8Htw26-173" value="" style="endArrow=none;html=1;rounded=0;strokeColor=light-dark(#000000,#000000);" parent="1" edge="1">
          <mxGeometry width="50" height="50" relative="1" as="geometry">
            <mxPoint x="705" y="230" as="sourcePoint" />
            <mxPoint x="615" y="230" as="targetPoint" />
          </mxGeometry>
        </mxCell>
        <mxCell id="SVeB0aTuuSMYUy8Htw26-174" value="" style="endArrow=none;html=1;rounded=0;strokeColor=light-dark(#000000,#000000);entryX=0.5;entryY=1;entryDx=0;entryDy=0;" parent="1" target="SVeB0aTuuSMYUy8Htw26-150" edge="1">
          <mxGeometry width="50" height="50" relative="1" as="geometry">
            <mxPoint x="615" y="230" as="sourcePoint" />
            <mxPoint x="600" y="220" as="targetPoint" />
          </mxGeometry>
        </mxCell>
        <mxCell id="SVeB0aTuuSMYUy8Htw26-175" value="" style="endArrow=none;html=1;rounded=0;strokeColor=light-dark(#000000,#000000);entryX=0.5;entryY=1;entryDx=0;entryDy=0;" parent="1" target="SVeB0aTuuSMYUy8Htw26-151" edge="1">
          <mxGeometry width="50" height="50" relative="1" as="geometry">
            <mxPoint x="705" y="230" as="sourcePoint" />
            <mxPoint x="680" y="210" as="targetPoint" />
          </mxGeometry>
        </mxCell>
        <mxCell id="SVeB0aTuuSMYUy8Htw26-176" value="" style="endArrow=none;html=1;rounded=0;strokeColor=light-dark(#000000,#000000);entryX=0.5;entryY=0;entryDx=0;entryDy=0;" parent="1" target="SVeB0aTuuSMYUy8Htw26-115" edge="1">
          <mxGeometry width="50" height="50" relative="1" as="geometry">
            <mxPoint x="660" y="230" as="sourcePoint" />
            <mxPoint x="590" y="250" as="targetPoint" />
          </mxGeometry>
        </mxCell>
        <mxCell id="SVeB0aTuuSMYUy8Htw26-177" value="" style="endArrow=none;html=1;rounded=0;strokeColor=light-dark(#000000,#000000);" parent="1" edge="1">
          <mxGeometry width="50" height="50" relative="1" as="geometry">
            <mxPoint x="620" y="610" as="sourcePoint" />
            <mxPoint x="718" y="610" as="targetPoint" />
          </mxGeometry>
        </mxCell>
        <mxCell id="SVeB0aTuuSMYUy8Htw26-178" value="" style="endArrow=none;html=1;rounded=0;entryX=0.5;entryY=1;entryDx=0;entryDy=0;strokeColor=light-dark(#000000,#000000);" parent="1" target="SVeB0aTuuSMYUy8Htw26-121" edge="1">
          <mxGeometry width="50" height="50" relative="1" as="geometry">
            <mxPoint x="660" y="610" as="sourcePoint" />
            <mxPoint x="510" y="610" as="targetPoint" />
          </mxGeometry>
        </mxCell>
        <mxCell id="SVeB0aTuuSMYUy8Htw26-179" value="" style="endArrow=none;html=1;rounded=0;strokeColor=light-dark(#000000,#000000);exitX=0.5;exitY=0;exitDx=0;exitDy=0;" parent="1" source="SVeB0aTuuSMYUy8Htw26-157" edge="1">
          <mxGeometry width="50" height="50" relative="1" as="geometry">
            <mxPoint x="600" y="640" as="sourcePoint" />
            <mxPoint x="620" y="610" as="targetPoint" />
          </mxGeometry>
        </mxCell>
        <mxCell id="SVeB0aTuuSMYUy8Htw26-180" value="" style="endArrow=none;html=1;rounded=0;strokeColor=light-dark(#000000,#000000);exitX=0.5;exitY=0;exitDx=0;exitDy=0;" parent="1" source="SVeB0aTuuSMYUy8Htw26-130" edge="1">
          <mxGeometry width="50" height="50" relative="1" as="geometry">
            <mxPoint x="710" y="630" as="sourcePoint" />
            <mxPoint x="718" y="610" as="targetPoint" />
          </mxGeometry>
        </mxCell>
        <mxCell id="SVeB0aTuuSMYUy8Htw26-181" value="" style="endArrow=none;html=1;rounded=0;strokeColor=light-dark(#000000,#000000);" parent="1" edge="1">
          <mxGeometry width="50" height="50" relative="1" as="geometry">
            <mxPoint x="305" y="610" as="sourcePoint" />
            <mxPoint x="215" y="610" as="targetPoint" />
          </mxGeometry>
        </mxCell>
        <mxCell id="SVeB0aTuuSMYUy8Htw26-182" value="" style="endArrow=none;html=1;rounded=0;strokeColor=light-dark(#000000,#000000);entryX=0.5;entryY=1;entryDx=0;entryDy=0;" parent="1" target="SVeB0aTuuSMYUy8Htw26-120" edge="1">
          <mxGeometry width="50" height="50" relative="1" as="geometry">
            <mxPoint x="260" y="610" as="sourcePoint" />
            <mxPoint x="260" y="630" as="targetPoint" />
          </mxGeometry>
        </mxCell>
        <mxCell id="SVeB0aTuuSMYUy8Htw26-183" value="" style="endArrow=none;html=1;rounded=0;strokeColor=light-dark(#000000,#000000);exitX=0.5;exitY=0;exitDx=0;exitDy=0;" parent="1" source="SVeB0aTuuSMYUy8Htw26-185" edge="1">
          <mxGeometry width="50" height="50" relative="1" as="geometry">
            <mxPoint x="216" y="630" as="sourcePoint" />
            <mxPoint x="215" y="610" as="targetPoint" />
          </mxGeometry>
        </mxCell>
        <mxCell id="SVeB0aTuuSMYUy8Htw26-184" value="" style="endArrow=none;html=1;rounded=0;strokeColor=light-dark(#000000,#000000);exitX=0.5;exitY=0;exitDx=0;exitDy=0;" parent="1" source="SVeB0aTuuSMYUy8Htw26-186" edge="1">
          <mxGeometry width="50" height="50" relative="1" as="geometry">
            <mxPoint x="304" y="630" as="sourcePoint" />
            <mxPoint x="305" y="610" as="targetPoint" />
          </mxGeometry>
        </mxCell>
        <mxCell id="SVeB0aTuuSMYUy8Htw26-185" value="&lt;u&gt;Tittel&lt;/u&gt;" style="ellipse;whiteSpace=wrap;html=1;fillColor=#008a00;strokeColor=light-dark(#005700, #38571a);strokeWidth=2;fontColor=#ffffff;opacity=60;" parent="1" vertex="1">
          <mxGeometry x="180" y="633.25" width="70" height="40" as="geometry" />
        </mxCell>
        <mxCell id="SVeB0aTuuSMYUy8Htw26-186" value="Lønn" style="ellipse;whiteSpace=wrap;html=1;fillColor=#008a00;strokeColor=light-dark(#005700, #38571a);strokeWidth=2;fontColor=#ffffff;opacity=60;" parent="1" vertex="1">
          <mxGeometry x="270" y="633.25" width="70" height="40" as="geometry" />
        </mxCell>
        <mxCell id="Jci-VXhB_fdju34ePWLW-1" value="&lt;font&gt;&lt;span style=&quot;caret-color: rgb(0, 0, 0); color: light-dark(rgb(0, 0, 0), rgb(0, 0, 0));&quot;&gt;P&lt;/span&gt;&lt;/font&gt;" style="text;html=1;align=center;verticalAlign=middle;resizable=0;points=[];autosize=1;strokeColor=none;fillColor=none;" vertex="1" parent="1">
          <mxGeometry x="250" y="370" width="30" height="30" as="geometry" />
        </mxCell>
        <mxCell id="Jci-VXhB_fdju34ePWLW-2" value="&lt;font&gt;&lt;span style=&quot;caret-color: rgb(0, 0, 0); color: light-dark(rgb(0, 0, 0), rgb(0, 0, 0));&quot;&gt;Q&lt;/span&gt;&lt;/font&gt;" style="text;html=1;align=center;verticalAlign=middle;resizable=0;points=[];autosize=1;strokeColor=none;fillColor=none;" vertex="1" parent="1">
          <mxGeometry x="250" y="445" width="30" height="30" as="geometry" />
        </mxCell>
      </root>
    </mxGraphModel>
  </diagram>
</mxfile>
